<svg width="128" height="128" viewBox="0 0 128 128" fill="none" xmlns="http://www.w3.org/2000/svg">
<g clip-path="url(#clip0_475_25141)">
<path d="M109.243 109.245C134.231 84.2567 134.231 43.7433 109.243 18.7554C84.2547 -6.23254 43.7413 -6.23254 18.7534 18.7554C-6.2345 43.7433 -6.2345 84.2567 18.7534 109.245C43.7413 134.233 84.2547 134.233 109.243 109.245Z" fill="url(#paint0_radial_475_25141)"/>
<path d="M109.243 109.245C134.231 84.2567 134.231 43.7433 109.243 18.7554C84.2547 -6.23254 43.7413 -6.23254 18.7534 18.7554C-6.2345 43.7433 -6.2345 84.2567 18.7534 109.245C43.7413 134.233 84.2547 134.233 109.243 109.245Z" fill="url(#paint1_radial_475_25141)"/>
<g style="mix-blend-mode:multiply">
<path d="M109.243 109.245C134.231 84.2567 134.231 43.7433 109.243 18.7554C84.2552 -6.23254 43.7418 -6.23254 18.7539 18.7554C-6.23401 43.7433 -6.23401 84.2567 18.7539 109.245C43.7418 134.233 84.2552 134.233 109.243 109.245Z" fill="url(#paint2_radial_475_25141)"/>
</g>
</g>
<defs>
<radialGradient id="paint0_radial_475_25141" cx="0" cy="0" r="1" gradientUnits="userSpaceOnUse" gradientTransform="translate(34.8 24.8644) scale(113.077)">
<stop stop-color="#F9FFB0"/>
<stop offset="0.41" stop-color="#FFEA00"/>
<stop offset="0.49" stop-color="#FFE500"/>
<stop offset="0.58" stop-color="#FFD600"/>
<stop offset="0.68" stop-color="#FFBE00"/>
<stop offset="0.78" stop-color="#FF9D00"/>
<stop offset="0.81" stop-color="#FF9500"/>
<stop offset="0.89" stop-color="#FF9B00"/>
<stop offset="1" stop-color="#FFAA00"/>
</radialGradient>
<radialGradient id="paint1_radial_475_25141" cx="0" cy="0" r="1" gradientUnits="userSpaceOnUse" gradientTransform="translate(34.8 24.8644) scale(113.077)">
<stop stop-color="#FFDA91"/>
<stop offset="0.31" stop-color="#FF6A00"/>
<stop offset="0.4" stop-color="#FA6800"/>
<stop offset="0.5" stop-color="#EC6200"/>
<stop offset="0.6" stop-color="#D65900"/>
<stop offset="0.71" stop-color="#B64C00"/>
<stop offset="0.82" stop-color="#913C00"/>
<stop offset="0.8499" stop-color="#974100"/>
<stop offset="0.85" stop-color="#973F00"/>
<stop offset="0.9" stop-color="#A84600"/>
<stop offset="0.95" stop-color="#C45200"/>
<stop offset="1" stop-color="#E86100"/>
</radialGradient>
<radialGradient id="paint2_radial_475_25141" cx="0" cy="0" r="1" gradientUnits="userSpaceOnUse" gradientTransform="translate(34.8005 24.8644) scale(113.077)">
<stop stop-color="#F9FFB0"/>
<stop offset="0.41" stop-color="#FFEA00"/>
<stop offset="0.49" stop-color="#FFE500"/>
<stop offset="0.58" stop-color="#FFD600"/>
<stop offset="0.68" stop-color="#FFBE00"/>
<stop offset="0.78" stop-color="#FF9D00"/>
<stop offset="0.81" stop-color="#FF9500"/>
<stop offset="0.89" stop-color="#FF9B00"/>
<stop offset="1" stop-color="#FFAA00"/>
</radialGradient>
<clipPath id="clip0_475_25141">
<rect width="128" height="128" fill="white"/>
</clipPath>
</defs>
</svg>
