<svg width="128" height="128" viewBox="0 0 128 128" fill="none" xmlns="http://www.w3.org/2000/svg">
<path d="M64 10C35.2742 10 12 34.1694 12 64C12 93.8306 35.2742 118 64 118C92.7258 118 116 93.8306 116 64C116 34.1694 92.7258 10 64 10ZM80.7742 46.5806C84.4855 46.5806 87.4839 49.6944 87.4839 53.5484C87.4839 57.4024 84.4855 60.5161 80.7742 60.5161C77.0629 60.5161 74.0645 57.4024 74.0645 53.5484C74.0645 49.6944 77.0629 46.5806 80.7742 46.5806ZM47.2258 46.5806C50.9371 46.5806 53.9355 49.6944 53.9355 53.5484C53.9355 57.4024 50.9371 60.5161 47.2258 60.5161C43.5145 60.5161 40.5161 57.4024 40.5161 53.5484C40.5161 49.6944 43.5145 46.5806 47.2258 46.5806ZM88.071 83.6403C82.0952 91.0871 73.3306 95.3548 64 95.3548C54.6694 95.3548 45.9048 91.0871 39.929 83.6403C37.0774 80.0911 42.2355 75.6492 45.0871 79.1766C49.7839 85.0339 56.6613 88.3653 64 88.3653C71.3387 88.3653 78.2161 85.0121 82.9129 79.1766C85.7226 75.6492 90.9016 80.0911 88.071 83.6403Z" fill="black"/>
</svg>
