<?xml version="1.0" encoding="UTF-8"?>
<svg id="Layer_2" data-name="Layer 2" xmlns="http://www.w3.org/2000/svg" viewBox="0 0 554.01 209.34">
  <defs>
    <style>
      .cls-1 {
        fill: #fef8e6;
        stroke-width: 0px;
      }
    </style>
  </defs>
  <g id="Layer_1-2" data-name="Layer 1">
    <g>
      <path class="cls-1" d="m116.95,91.84c.9-2.6,1.75-5.21,2.71-7.79,1.71-4.61,3.47-9.2,6.32-13.27,1.55-2.22,3.39-4.14,5.77-5.49,2.72-1.54,5.42-1.84,8.08.16,3.28,2.47,6.32,5.15,8.03,9.02.99,2.25.92,4.68,1.18,7.05.08.71.09,1.43.35,2.11.39-.07.37-.41.45-.65,1.82-5.02,4.53-9.49,8.09-13.47.91-1.01,1.75-2.09,2.81-2.94.76-.62.59-.88-.2-1.18-3.62-1.4-7.22-2.82-10.84-4.23-8.08-3.15-16.18-6.27-24.25-9.45-7.37-2.9-14.85-5.48-22.34-8.06-8.55-2.94-17.08-5.94-25.21-9.92-7.99-3.92-15.64-8.42-21.98-14.79-1.95-1.96-3.77-4.13-4.43-6.88-1.32-5.49,0-9.52,6.14-11.22,4.02-1.11,8.12-.93,12.16-.58,9.09.79,17.86,3.11,26.47,6.06,5.66,1.94,10.95,4.69,16.19,7.51,11.9,6.41,23.2,13.84,34.8,20.76,8.2,4.89,16.3,9.96,24.47,14.91,4.82,2.92,9.68,5.76,14.54,8.63.29.17.57.44,1.07.4-.54-2.23-.97-4.45-1.17-6.71-.25-2.75-.35-5.51.16-8.23.54-2.88,2.28-4.45,5.2-4.81,2.82-.35,4.33.53,5.43,3.19,1.17,2.81,1.97,5.74,2.66,8.7,1.68,7.24,4.84,13.75,9.36,19.64.84,1.09,1.94,1.76,3.09,2.41.71.4,1.22.02,1.7-.45,1.95-1.91,3.15-4.32,4.4-6.68,4.01-7.55,7.79-15.22,12.15-22.58.88-1.48,1.92-2.85,3.03-4.16,2.12-2.47,5.14-1.69,7.42.08,2.71,2.11,4.02,5.02,4.26,8.41.13,1.89-.63,3.6-1.4,5.27-1.73,3.75-4.01,7.18-6.16,10.69-3.37,5.48-6.75,10.95-10.16,16.4-.4.64-.3.97.36,1.29,1.64.82,3.28,1.66,4.88,2.56,1.02.57,1.35.24,1.63-.78,1.5-5.39,3.2-10.72,5.74-15.74.97-1.92,2.13-3.72,3.6-5.35,2.64-2.92,5.56-2.44,7.87-.93,1.86,1.22,3.29,2.86,3.97,5.09.71,2.34-.2,4.32-1.11,6.32-2.48,5.46-5.03,10.88-6.87,16.59-.56,1.74-.49,1.89,1.17,2.61,1.06.46,2.11.96,3.15,1.48.78.39,1.36.22,1.88-.45,3.44-4.48,6.46-9.23,9.26-14.12,3.04-5.32,5.58-10.87,7.62-16.65.64-1.83,2.44-2.65,4.39-2.15,1.08.27,1.97.9,2.78,1.61,1.99,1.77,3.59,3.87,4.8,6.23.87,1.7,1.07,3.48.42,5.34-2.61,7.42-5.21,14.85-7.8,22.28-.72,2.07-1.4,4.17-2.12,6.24-.23.65-.08,1.04.59,1.31,1.75.68,3.48,1.42,5.22,2.12.28.11.62.35.89.04.22-.25,0-.53-.1-.78-.47-1.28-.19-2.54.14-3.77,1.04-3.86,2.18-7.68,3.22-11.54,1.32-4.87,1.82-9.88,2.3-14.89.37-3.89.72-7.79,1.39-11.64.05-.31.12-.63.21-.93.68-2.33,1.33-2.84,3.69-2.46,4.46.72,7.59,3.37,9.85,7.13.67,1.11.47,2.39.32,3.64-.58,4.7-1.95,9.21-3.23,13.75-.29,1.03-.6,2.06-.92,3.16.46-.02.45-.35.55-.56,2.79-5.71,5.67-11.37,9.27-16.63,2.1-3.07,4.6-5.71,7.77-7.7,1.63-1.03,3.41-1.54,5.29-1.8.82-.11,1.63.06,2.31.49,4.66,2.97,7.84,7.03,8.78,12.55.4,2.36-.28,4.77-.22,7.17,0,.19-.11.39.19.67.45-.77.87-1.51,1.31-2.24,3.72-6.22,8.47-11.49,14.64-15.37,2.28-1.44,4.78-2.35,7.57-2.37,2.48-.01,4.35,1.02,5.66,3.01,2.93,4.43,4.21,9.29,3.33,14.59-1.73,10.34-5.01,20.14-10.26,29.24-1.33,2.3-2.87,4.45-5.41,5.6-.88.4-1.79.7-2.79.46-1.97-.48-2.81-1.95-2.58-4.64.39-4.56,1.72-8.93,3.08-13.28,1.3-4.16,2.72-8.27,3.75-12.51.39-1.6.61-3.22.5-4.87-.1-1.37-.75-1.77-2-1.21-1.7.76-2.9,2.14-3.97,3.57-4.49,5.99-8.34,12.39-12.09,18.86-1.96,3.38-3.8,6.84-5.77,10.22-1.68,2.87-4.03,3.76-6.36,2.51-.63-.34-1.25-.74-1.79-1.2-.63-.54-1.19-1.18-1.76-1.79-1.87-2-2.2-4.24-1.4-6.86,1.55-5.12,2.91-10.31,3.38-15.67.27-3.09.79-6.18.36-9.29-.2-1.43-.86-1.67-2.04-.81-1.09.79-1.84,1.88-2.57,2.98-3.37,5.06-6.22,10.43-9.43,15.58-3.08,4.95-6.13,9.93-10.26,14.12-.58.59-.5.88.28,1.14,11.3,3.79,22.69,7.29,34.47,9.34,3.08.53,6.19.68,9.3.85,6.5.34,13,.67,19.5.92,3.55.14,7.1.35,10.65.5,5.95.25,11.87.77,17.79,1.37,7.13.72,14.2,1.76,21.22,3.15,8.21,1.63,16.27,3.81,24.11,6.76,7.7,2.9,15.04,6.49,21.86,11.12,5.74,3.89,11.09,8.28,15.75,13.42,4.11,4.53,7.94,9.3,10.3,15.05,1.33,3.24,2.33,6.57,2.01,10.13-.36,3.97-1.92,7.45-4.6,10.44-4.26,4.76-9.72,7.59-15.59,9.76-8.2,3.02-16.74,4.46-25.39,5.41-8.81.97-17.65.95-26.47.63-12.96-.47-25.79-2.17-38.33-5.69-12.75-3.58-24.42-9.24-34.64-17.73-6.31-5.24-11.65-11.35-16.38-18.03-3.66-5.17-6.43-10.86-9.78-16.2-3.26-5.19-6.95-10.03-11.13-14.52-7.76-8.32-17-14.57-27.04-19.76-5.68-2.94-11.33-5.94-16.97-8.95-.85-.45-1.42-.39-2.1.3-1.19,1.19-2.56,2.14-4.06,2.93-2.27,1.2-4.57,1.21-6.79.08-3.4-1.72-6.27-4.11-8.4-7.31-1.18-1.77-1.54-3.76-1.4-5.84.07-1.1-.3-1.75-1.34-2.23-2.91-1.33-5.78-2.74-8.64-4.18-1-.5-1.55-.32-2.08.7-2.03,3.9-4.05,7.8-5.9,11.79-1.25,2.72-3.14,5.01-5.37,6.99-1.29,1.15-2.86,1.84-4.6,1.74-2.18-.13-3.53-1.95-4.03-4.68-.58-3.19.61-5.99,1.67-8.81,1.68-4.45,3.83-8.7,5.99-12.94.44-.87.38-1.3-.58-1.72-7.4-3.23-14.78-6.5-22.16-9.76-.91-.4-1.84-.78-2.76-1.17-.54-.23-.79-.21-.7.52.9,7.35-.14,14.57-1.65,21.74-.97,4.62-2.32,9.14-4.44,13.39-.79,1.59-1.8,3.02-3.3,4.05-2.93,2.01-5.89.61-6.37-2.89-.44-3.21-.03-6.38.37-9.53.63-4.95,1.54-9.86,2.18-14.81.29-2.24.65-4.51-.05-6.77-.46-1.5-.95-1.74-2.34-1.03-1.43.73-2.25,2.03-3.01,3.34-2.47,4.25-4.46,8.75-6.5,13.22-2.55,5.6-4.65,11.39-6.97,17.08-.38.93-.88,1.81-1.65,2.47-1.42,1.23-3.21,1.28-5.15.23-1.71-.92-3.12-2.21-4.44-3.62-1.42-1.51-1.45-3.35-1.19-5.19.77-5.43,1.09-10.88.88-16.36-.1-2.71-.32-5.42-.88-8.08-.14-.67-.29-1.39-1.07-1.59-.71-.18-1.09.41-1.48.84-1.79,1.96-2.66,4.44-3.7,6.8-2.85,6.42-5.3,13.02-8.53,19.28-1.52,2.95-3.21,5.8-5.32,8.38-.38.46-.8.9-1.26,1.28-2.02,1.65-3.53,1.7-5.81.41-2.44-1.39-4.36-3.36-6.23-5.38-1.83-1.98-1.38-4.46-1.05-6.74.97-6.77,1.88-13.53,1.51-20.38-.27-5.06-.71-10.1-.71-15.17,0-.81.09-1.59.27-2.37.3-1.29,1.05-1.91,2.37-1.9,3.26.01,6.05,1.32,8.6,3.23.76.57,1.48,1.22,2.15,1.9.98,1,1.63,2.21,1.69,3.62.13,3.11.09,6.23-.3,9.32-.33,2.65-.7,5.3-1.05,7.95-.02.14.03.3.05.44.07,0,.14,0,.21,0Zm248.56,41.35c-3.48-.07-6.94.18-10.41.47-6.36.53-12.6,1.62-18.61,3.82-4.32,1.58-8.32,3.67-11.53,7.08-3.24,3.44-4.44,7.4-3.38,12,1.16,5.04,4.27,8.9,7.87,12.35,4.85,4.65,10.49,8.21,16.44,11.3,5.22,2.71,10.68,4.87,16.11,7.13,8.41,3.49,17.07,6.12,25.95,8.09,11.66,2.59,23.47,3.93,35.41,3.89,2.58,0,5.18-.2,7.77-.39,5.6-.41,11.12-1.2,16.53-2.71,5.41-1.52,10.66-3.41,15.01-7.18,4.58-3.97,5.92-8.89,4.26-14.57-1.5-5.14-4.97-9-8.86-12.42-6.78-5.97-14.65-10.23-22.91-13.79-5.99-2.58-12.18-4.6-18.43-6.47-9.35-2.8-18.74-5.35-28.42-6.79-7.56-1.13-15.14-1.74-22.78-1.82Z"/>
      <path class="cls-1" d="m431.03,50.66c.18,2.44-1.03,4.42-2.28,6.39-2.3,3.62-5.06,6.88-7.73,10.22-3.16,3.96-6.38,7.88-9.58,11.81-4.21,5.17-8.41,10.35-12.39,15.7-3.03,4.07-5.84,8.3-8.6,12.56-1.65,2.55-3.84,4.59-6.38,6.23-1.16.75-2.43,1.2-3.84,1.18-1.95-.02-3.21-1.05-3.67-2.94-.73-2.99.13-5.68,1.43-8.31,2.54-5.14,5.83-9.81,9-14.57,1.32-1.99,1.32-1.97-.74-3.16-3.88-2.23-6.8-5.45-8.91-9.32-3.72-6.82-5.5-14.17-5.6-21.94-.04-3.01.12-5.99.79-8.92.42-1.87.91-3.73,2.41-5.11,1.77-1.64,3.9-1.93,6.15-1.57.97.15,1.71.78,2.18,1.72,1.12,2.27,1.41,4.74,1.68,7.19.61,5.68,1.08,11.37,3.14,16.77,1.04,2.73,2.29,5.36,3.72,7.9.06.1.13.2.2.3,2.27,3.11,3.3,2.57,5.41.23,4.54-5.03,7.93-10.91,11.95-16.33,3.19-4.29,6.13-8.78,9.7-12.78.88-.99,1.94-1.78,3.06-2.48.63-.39,1.31-.47,2.07-.35,3.49.56,5.28,2.9,6.33,5.99.38,1.13.6,2.32.5,3.57Z"/>
      <path class="cls-1" d="m27.99,126.01c-1.43.1-2.51-.55-3.3-1.73-1.7-2.52-2.13-5.24-1.57-8.22.85-4.53,2.21-8.91,3.64-13.27.32-.99.66-1.97.98-2.96.49-1.5.45-1.59-1.02-2.04-4.41-1.34-8.23-3.68-11.54-6.85-7.43-7.09-12.22-15.69-14.52-25.67C.27,63.57,0,61.83,0,60.06c.02-3.84,1.84-5.8,5.67-6.2,1.94-.2,3.19.77,4.21,2.22,1.72,2.43,2.98,5.11,4.07,7.85,2.29,5.76,5.26,11.12,9.31,15.83,1.58,1.84,3.17,3.69,5.12,5.19,1.85,1.43,2.88,1.3,4.1-.67,1.66-2.67,2.63-5.64,3.69-8.57,2.37-6.57,4.65-13.18,7.31-19.65.73-1.77,1.53-3.52,2.7-5.06,1.5-1.99,2.89-2.46,5.33-1.77,3.27.93,5.3,3.24,6.81,6.15,1.6,3.07,1.09,6.1,0,9.16-1.44,4.03-3.29,7.88-5.01,11.8-5.1,11.63-10.79,23-14.85,35.06-.47,1.4-.88,2.82-1.29,4.24-1.02,3.52-2.74,6.62-5.5,9.09-1.04.93-2.25,1.34-3.67,1.28Z"/>
      <path class="cls-1" d="m83.46,106.44c-1.15,1.91-2.27,3.83-3.45,5.72-1.84,2.92-3.91,5.63-6.57,7.88-2.46,2.08-5.16,2.43-8.06,1.23-3.66-1.52-6.91-3.62-9.51-6.68-1.9-2.23-2.1-4.95-2.32-7.65-.73-8.94.7-17.66,2.83-26.29.6-2.44,1.5-4.78,2.7-7.02,2.7-5.01,7.03-4.49,10.49-1.67.74.6,1.4,1.32,2.02,2.05,1.82,2.13,1.65,4.52.92,7.01-1.53,5.25-3.15,10.48-4.2,15.86-.67,3.42-1.01,6.87-.86,10.36.03.59-.05,1.29.58,1.6.7.35,1.25-.19,1.69-.61,2.36-2.26,4.14-4.98,5.71-7.81,4.68-8.46,8.42-17.3,10.64-26.75.24-1.01.48-2.02.64-3.05.5-3.14,2.67-3.57,5.17-2.82,1.48.45,2.64,1.48,3.8,2.47,1.96,1.67,3.69,3.54,4.85,5.87.83,1.66.47,3.37.15,5.05-1.57,8.28-3.19,16.55-4.76,24.83-.57,3.02-1.07,6.05-1.6,9.08-.13.75-.33,1.48-.62,2.18-.63,1.52-1.68,2.52-3.36,2.71-1.96.22-3.66-.27-4.84-1.96-1.4-1.99-1.6-4.31-1.71-6.63-.07-1.62-.01-3.25-.01-4.88-.1-.03-.2-.05-.31-.08Z"/>
      <path class="cls-1" d="m435.21,106.83c3.78.32,8.05-.6,12.35-1.31,1.24-.21,2.47-.21,3.67.2,1.52.51,2.14,1.81,1.67,3.33-.5,1.6-1.54,2.8-2.86,3.74-4.21,2.99-8.97,4.47-14.05,5.07-3.56.42-7.09.27-10.61-.43-9-1.79-14.97-10.4-13.63-19.47,1.01-6.83,4.21-12.56,8.46-17.84,3.34-4.14,7.23-7.67,11.71-10.52,3.82-2.43,7.89-4.14,12.55-4.26,4.73-.12,8.6,1.64,11.67,5.11,2.93,3.3,5.15,7.01,5.76,11.5.6,4.36-.72,7.9-4.47,10.35-5.14,3.34-10.73,5.22-16.93,5.21-4.5,0-8.93-.5-13.29-1.6-.99-.25-1.44,0-1.78.95-.82,2.23-1.37,4.48-1.14,6.89.13,1.34.85,2.09,2.09,2.45,1.43.42,2.9.56,4.38.62,1.28.05,2.56.01,4.46.01Zm3.13-19.42c1.16,0,2.33.09,3.48-.02,2.23-.2,4.49-.37,6.39-1.76,1.45-1.06,1.67-2.51.66-3.98-.87-1.26-1.91-2.34-3.3-3.07-1.26-.67-2.55-.74-3.82-.19-3.96,1.7-6.95,4.62-9.69,7.84-.52.61-.35.84.43.95,1.95.27,3.91.23,5.86.23Z"/>
      <path class="cls-1" d="m478.24,121.97c-6.18-.07-11.98-1.4-16.94-5.32-1.62-1.28-3.15-2.7-4.14-4.6-.72-1.38-.85-2.82-.54-4.3.61-2.88,2.82-3.98,5.52-2.75,1.53.7,2.81,1.82,4.34,2.53,4.91,2.29,10.12,2.89,15.44,2.59,2.56-.14,3.27-1.58,2.09-3.87-1.24-2.39-3.21-4.17-5.22-5.88-2.86-2.44-5.75-4.81-7.98-7.89-2.84-3.95-2.61-7.51.78-10.97,1.02-1.03,2.1-1.98,3.31-2.75,6.15-3.91,12.71-6.88,19.85-8.46.86-.19,1.73-.3,2.61-.38,3.5-.32,6.21,1.1,8.31,3.82,1.22,1.59,2.21,3.31,2.96,5.18.67,1.69.77,3.43.58,5.18-.21,1.84-1.24,2.57-3.09,2.28-1.03-.16-2.01-.55-2.91-1.07-3.14-1.83-6.48-2.08-9.97-1.36-1.76.37-3.54.63-5.23,1.28-1.18.45-2.24,1.04-2.95,2.14-.54.83-.54,1.57.08,2.41,1.43,1.93,3.36,3.3,5.19,4.76,2.8,2.24,5.41,4.6,7.16,7.78,1.28,2.33,1.96,4.81,1.67,7.48-.26,2.42-1.43,4.41-3.32,5.91-5.14,4.09-10.98,6.27-17.61,6.22Z"/>
      <path class="cls-1" d="m522.06,95.73c.01-2.55.86-4.5,1.65-6.46,4.86-11.97,9.02-24.17,12.11-36.72.54-2.21,1.01-4.44,1.55-6.65.55-2.22,2.15-3.15,4.42-2.69,2.6.52,4.59,2.1,6.36,3.88,2.15,2.18,4.26,4.44,5.57,7.29.36.78.38,1.43.1,2.27-2.78,8.53-6.71,16.57-10.52,24.66-2.78,5.89-5.63,11.74-9.13,17.24-.81,1.28-1.72,2.5-2.69,3.67-1.44,1.73-2.94,2.04-4.75.93-2.89-1.78-4.32-4.49-4.68-7.44Z"/>
      <path class="cls-1" d="m525.84,122.11c.37,3.13-4.96,7.14-8.55,4.77-3.36-2.22-5.47-5.3-6.45-9.15-.34-1.34.16-2.61.83-3.77,1.3-2.27,3.25-3.79,5.6-4.86,2.13-.97,3.88-.45,5.17,1.53,1.61,2.46,3.43,8.62,3.41,11.49Z"/>
    </g>
  </g>
</svg>