<svg width="704" height="156" viewBox="0 0 704 156" fill="none" xmlns="http://www.w3.org/2000/svg">
<path d="M704 -7.62939e-05L687 34.837L680.533 79.396L641 122.478C641 122.478 415.073 126.36 281.6 139.27C234.667 143.809 187.733 142.632 140.8 147.172C93.8666 151.711 46.9333 138.216 23.4666 147.172L0 155.073L5.26568e-06 -0.000234748L23.4666 -0.000229467C46.9333 -0.000224185 93.8666 -0.000213621 140.8 -0.000203058C187.733 -0.000192494 234.667 -0.00018193 281.6 -0.000171367C328.533 -0.000160803 375.467 -0.000150239 422.4 -0.000139676C469.333 -0.000129112 516.267 -0.000118548 563.2 -0.000107985C610.133 -9.74212e-05 657.067 -8.68576e-05 680.533 -8.15758e-05L704 -7.62939e-05Z" fill="url(#paint0_linear_497_27543)"/>
<defs>
<linearGradient id="paint0_linear_497_27543" x1="352" y1="166.926" x2="352" y2="-0.000297303" gradientUnits="userSpaceOnUse">
<stop stop-color="#FFE199"/>
<stop offset="0.520833" stop-color="#FFC945"/>
<stop offset="1" stop-color="#FFC945"/>
</linearGradient>
</defs>
</svg>